<?xml version="1.0" encoding="UTF-8" standalone="no"?>
<svg
   fill-rule="evenodd"
   stroke-linejoin="round"
   stroke-miterlimit="2"
   clip-rule="evenodd"
   viewBox="0 0 3000 3000"
   version="1.1"
   id="svg184"
   sodipodi:docname="teamwork-and-collaboration.svg"
   inkscape:version="1.1.2 (0a00cf5339, 2022-02-04)"
   xmlns:inkscape="http://www.inkscape.org/namespaces/inkscape"
   xmlns:sodipodi="http://sodipodi.sourceforge.net/DTD/sodipodi-0.dtd"
   xmlns="http://www.w3.org/2000/svg"
   xmlns:svg="http://www.w3.org/2000/svg">
  <defs
     id="defs188">
    <filter
       style="color-interpolation-filters:sRGB;"
       inkscape:label="Color Shift"
       id="filter6481"
       x="0"
       y="0"
       width="1"
       height="1">
      <feColorMatrix
         type="hueRotate"
         values="330"
         result="color1"
         id="feColorMatrix6477" />
      <feColorMatrix
         type="saturate"
         values="0.278962"
         result="fbSourceGraphic"
         id="feColorMatrix6479" />
      <feColorMatrix
         result="fbSourceGraphicAlpha"
         in="fbSourceGraphic"
         values="0 0 0 -1 0 0 0 0 -1 0 0 0 0 -1 0 0 0 0 1 0"
         id="feColorMatrix6621" />
      <feColorMatrix
         id="feColorMatrix6623"
         type="hueRotate"
         values="330"
         result="color1"
         in="fbSourceGraphic" />
      <feColorMatrix
         id="feColorMatrix6625"
         type="saturate"
         values="0.28"
         result="color2" />
    </filter>
    <filter
       style="color-interpolation-filters:sRGB;"
       inkscape:label="Color Shift"
       id="filter6487"
       x="0"
       y="0"
       width="1"
       height="1">
      <feColorMatrix
         type="hueRotate"
         values="330"
         result="color1"
         id="feColorMatrix6483" />
      <feColorMatrix
         type="saturate"
         values="0.278962"
         result="fbSourceGraphic"
         id="feColorMatrix6485" />
      <feColorMatrix
         result="fbSourceGraphicAlpha"
         in="fbSourceGraphic"
         values="0 0 0 -1 0 0 0 0 -1 0 0 0 0 -1 0 0 0 0 1 0"
         id="feColorMatrix6627" />
      <feColorMatrix
         id="feColorMatrix6629"
         type="hueRotate"
         values="330"
         result="color1"
         in="fbSourceGraphic" />
      <feColorMatrix
         id="feColorMatrix6631"
         type="saturate"
         values="0.28"
         result="color2" />
    </filter>
    <filter
       style="color-interpolation-filters:sRGB;"
       inkscape:label="Color Shift"
       id="filter6493"
       x="0"
       y="0"
       width="1"
       height="1">
      <feColorMatrix
         type="hueRotate"
         values="330"
         result="color1"
         id="feColorMatrix6489" />
      <feColorMatrix
         type="saturate"
         values="0.278962"
         result="fbSourceGraphic"
         id="feColorMatrix6491" />
      <feColorMatrix
         result="fbSourceGraphicAlpha"
         in="fbSourceGraphic"
         values="0 0 0 -1 0 0 0 0 -1 0 0 0 0 -1 0 0 0 0 1 0"
         id="feColorMatrix6633" />
      <feColorMatrix
         id="feColorMatrix6635"
         type="hueRotate"
         values="330"
         result="color1"
         in="fbSourceGraphic" />
      <feColorMatrix
         id="feColorMatrix6637"
         type="saturate"
         values="0.28"
         result="color2" />
    </filter>
    <filter
       style="color-interpolation-filters:sRGB;"
       inkscape:label="Color Shift"
       id="filter6499"
       x="0"
       y="0"
       width="1"
       height="1">
      <feColorMatrix
         type="hueRotate"
         values="330"
         result="color1"
         id="feColorMatrix6495" />
      <feColorMatrix
         type="saturate"
         values="0.278962"
         result="fbSourceGraphic"
         id="feColorMatrix6497" />
      <feColorMatrix
         result="fbSourceGraphicAlpha"
         in="fbSourceGraphic"
         values="0 0 0 -1 0 0 0 0 -1 0 0 0 0 -1 0 0 0 0 1 0"
         id="feColorMatrix6639" />
      <feColorMatrix
         id="feColorMatrix6641"
         type="hueRotate"
         values="330"
         result="color1"
         in="fbSourceGraphic" />
      <feColorMatrix
         id="feColorMatrix6643"
         type="saturate"
         values="0.28"
         result="color2" />
    </filter>
    <filter
       style="color-interpolation-filters:sRGB;"
       inkscape:label="Color Shift"
       id="filter6505"
       x="0"
       y="0"
       width="1"
       height="1">
      <feColorMatrix
         type="hueRotate"
         values="330"
         result="color1"
         id="feColorMatrix6501" />
      <feColorMatrix
         type="saturate"
         values="0.278962"
         result="fbSourceGraphic"
         id="feColorMatrix6503" />
      <feColorMatrix
         result="fbSourceGraphicAlpha"
         in="fbSourceGraphic"
         values="0 0 0 -1 0 0 0 0 -1 0 0 0 0 -1 0 0 0 0 1 0"
         id="feColorMatrix6645" />
      <feColorMatrix
         id="feColorMatrix6647"
         type="hueRotate"
         values="330"
         result="color1"
         in="fbSourceGraphic" />
      <feColorMatrix
         id="feColorMatrix6649"
         type="saturate"
         values="0.28"
         result="color2" />
    </filter>
    <filter
       style="color-interpolation-filters:sRGB;"
       inkscape:label="Color Shift"
       id="filter6511"
       x="0"
       y="0"
       width="1"
       height="1">
      <feColorMatrix
         type="hueRotate"
         values="330"
         result="color1"
         id="feColorMatrix6507" />
      <feColorMatrix
         type="saturate"
         values="0.278962"
         result="fbSourceGraphic"
         id="feColorMatrix6509" />
      <feColorMatrix
         result="fbSourceGraphicAlpha"
         in="fbSourceGraphic"
         values="0 0 0 -1 0 0 0 0 -1 0 0 0 0 -1 0 0 0 0 1 0"
         id="feColorMatrix6651" />
      <feColorMatrix
         id="feColorMatrix6653"
         type="hueRotate"
         values="330"
         result="color1"
         in="fbSourceGraphic" />
      <feColorMatrix
         id="feColorMatrix6655"
         type="saturate"
         values="0.28"
         result="color2" />
    </filter>
    <filter
       style="color-interpolation-filters:sRGB;"
       inkscape:label="Color Shift"
       id="filter6517"
       x="0"
       y="0"
       width="1"
       height="1">
      <feColorMatrix
         type="hueRotate"
         values="330"
         result="color1"
         id="feColorMatrix6513" />
      <feColorMatrix
         type="saturate"
         values="0.278962"
         result="fbSourceGraphic"
         id="feColorMatrix6515" />
      <feColorMatrix
         result="fbSourceGraphicAlpha"
         in="fbSourceGraphic"
         values="0 0 0 -1 0 0 0 0 -1 0 0 0 0 -1 0 0 0 0 1 0"
         id="feColorMatrix6657" />
      <feColorMatrix
         id="feColorMatrix6659"
         type="hueRotate"
         values="330"
         result="color1"
         in="fbSourceGraphic" />
      <feColorMatrix
         id="feColorMatrix6661"
         type="saturate"
         values="0.28"
         result="color2" />
    </filter>
    <filter
       style="color-interpolation-filters:sRGB;"
       inkscape:label="Color Shift"
       id="filter6523"
       x="0"
       y="0"
       width="1"
       height="1">
      <feColorMatrix
         type="hueRotate"
         values="330"
         result="color1"
         id="feColorMatrix6519" />
      <feColorMatrix
         type="saturate"
         values="0.278962"
         result="fbSourceGraphic"
         id="feColorMatrix6521" />
      <feColorMatrix
         result="fbSourceGraphicAlpha"
         in="fbSourceGraphic"
         values="0 0 0 -1 0 0 0 0 -1 0 0 0 0 -1 0 0 0 0 1 0"
         id="feColorMatrix6663" />
      <feColorMatrix
         id="feColorMatrix6665"
         type="hueRotate"
         values="330"
         result="color1"
         in="fbSourceGraphic" />
      <feColorMatrix
         id="feColorMatrix6667"
         type="saturate"
         values="0.28"
         result="color2" />
    </filter>
    <filter
       style="color-interpolation-filters:sRGB;"
       inkscape:label="Color Shift"
       id="filter6529"
       x="0"
       y="0"
       width="1"
       height="1">
      <feColorMatrix
         type="hueRotate"
         values="330"
         result="color1"
         id="feColorMatrix6525" />
      <feColorMatrix
         type="saturate"
         values="0.278962"
         result="fbSourceGraphic"
         id="feColorMatrix6527" />
      <feColorMatrix
         result="fbSourceGraphicAlpha"
         in="fbSourceGraphic"
         values="0 0 0 -1 0 0 0 0 -1 0 0 0 0 -1 0 0 0 0 1 0"
         id="feColorMatrix6669" />
      <feColorMatrix
         id="feColorMatrix6671"
         type="hueRotate"
         values="330"
         result="color1"
         in="fbSourceGraphic" />
      <feColorMatrix
         id="feColorMatrix6673"
         type="saturate"
         values="0.28"
         result="color2" />
    </filter>
    <filter
       style="color-interpolation-filters:sRGB;"
       inkscape:label="Color Shift"
       id="filter6535"
       x="0"
       y="0"
       width="1"
       height="1">
      <feColorMatrix
         type="hueRotate"
         values="330"
         result="color1"
         id="feColorMatrix6531" />
      <feColorMatrix
         type="saturate"
         values="0.278962"
         result="fbSourceGraphic"
         id="feColorMatrix6533" />
      <feColorMatrix
         result="fbSourceGraphicAlpha"
         in="fbSourceGraphic"
         values="0 0 0 -1 0 0 0 0 -1 0 0 0 0 -1 0 0 0 0 1 0"
         id="feColorMatrix6675" />
      <feColorMatrix
         id="feColorMatrix6677"
         type="hueRotate"
         values="330"
         result="color1"
         in="fbSourceGraphic" />
      <feColorMatrix
         id="feColorMatrix6679"
         type="saturate"
         values="0.28"
         result="color2" />
    </filter>
    <filter
       style="color-interpolation-filters:sRGB;"
       inkscape:label="Color Shift"
       id="filter6541"
       x="0"
       y="0"
       width="1"
       height="1">
      <feColorMatrix
         type="hueRotate"
         values="330"
         result="color1"
         id="feColorMatrix6537" />
      <feColorMatrix
         type="saturate"
         values="0.278962"
         result="fbSourceGraphic"
         id="feColorMatrix6539" />
      <feColorMatrix
         result="fbSourceGraphicAlpha"
         in="fbSourceGraphic"
         values="0 0 0 -1 0 0 0 0 -1 0 0 0 0 -1 0 0 0 0 1 0"
         id="feColorMatrix6681" />
      <feColorMatrix
         id="feColorMatrix6683"
         type="hueRotate"
         values="330"
         result="color1"
         in="fbSourceGraphic" />
      <feColorMatrix
         id="feColorMatrix6685"
         type="saturate"
         values="0.28"
         result="color2" />
    </filter>
    <filter
       style="color-interpolation-filters:sRGB;"
       inkscape:label="Color Shift"
       id="filter6547"
       x="0"
       y="0"
       width="1"
       height="1">
      <feColorMatrix
         type="hueRotate"
         values="330"
         result="color1"
         id="feColorMatrix6543" />
      <feColorMatrix
         type="saturate"
         values="0.278962"
         result="fbSourceGraphic"
         id="feColorMatrix6545" />
      <feColorMatrix
         result="fbSourceGraphicAlpha"
         in="fbSourceGraphic"
         values="0 0 0 -1 0 0 0 0 -1 0 0 0 0 -1 0 0 0 0 1 0"
         id="feColorMatrix6687" />
      <feColorMatrix
         id="feColorMatrix6689"
         type="hueRotate"
         values="330"
         result="color1"
         in="fbSourceGraphic" />
      <feColorMatrix
         id="feColorMatrix6691"
         type="saturate"
         values="0.28"
         result="color2" />
    </filter>
    <filter
       style="color-interpolation-filters:sRGB;"
       inkscape:label="Color Shift"
       id="filter6553"
       x="0"
       y="0"
       width="1"
       height="1">
      <feColorMatrix
         type="hueRotate"
         values="330"
         result="color1"
         id="feColorMatrix6549" />
      <feColorMatrix
         type="saturate"
         values="0.278962"
         result="fbSourceGraphic"
         id="feColorMatrix6551" />
      <feColorMatrix
         result="fbSourceGraphicAlpha"
         in="fbSourceGraphic"
         values="0 0 0 -1 0 0 0 0 -1 0 0 0 0 -1 0 0 0 0 1 0"
         id="feColorMatrix6693" />
      <feColorMatrix
         id="feColorMatrix6695"
         type="hueRotate"
         values="330"
         result="color1"
         in="fbSourceGraphic" />
      <feColorMatrix
         id="feColorMatrix6697"
         type="saturate"
         values="0.28"
         result="color2" />
    </filter>
    <filter
       style="color-interpolation-filters:sRGB;"
       inkscape:label="Color Shift"
       id="filter6559"
       x="0"
       y="0"
       width="1"
       height="1">
      <feColorMatrix
         type="hueRotate"
         values="330"
         result="color1"
         id="feColorMatrix6555" />
      <feColorMatrix
         type="saturate"
         values="0.278962"
         result="fbSourceGraphic"
         id="feColorMatrix6557" />
      <feColorMatrix
         result="fbSourceGraphicAlpha"
         in="fbSourceGraphic"
         values="0 0 0 -1 0 0 0 0 -1 0 0 0 0 -1 0 0 0 0 1 0"
         id="feColorMatrix6699" />
      <feColorMatrix
         id="feColorMatrix6701"
         type="hueRotate"
         values="330"
         result="color1"
         in="fbSourceGraphic" />
      <feColorMatrix
         id="feColorMatrix6703"
         type="saturate"
         values="0.28"
         result="color2" />
    </filter>
    <filter
       style="color-interpolation-filters:sRGB;"
       inkscape:label="Color Shift"
       id="filter6565"
       x="0"
       y="0"
       width="1"
       height="1">
      <feColorMatrix
         type="hueRotate"
         values="330"
         result="color1"
         id="feColorMatrix6561" />
      <feColorMatrix
         type="saturate"
         values="0.278962"
         result="fbSourceGraphic"
         id="feColorMatrix6563" />
      <feColorMatrix
         result="fbSourceGraphicAlpha"
         in="fbSourceGraphic"
         values="0 0 0 -1 0 0 0 0 -1 0 0 0 0 -1 0 0 0 0 1 0"
         id="feColorMatrix6705" />
      <feColorMatrix
         id="feColorMatrix6707"
         type="hueRotate"
         values="330"
         result="color1"
         in="fbSourceGraphic" />
      <feColorMatrix
         id="feColorMatrix6709"
         type="saturate"
         values="0.28"
         result="color2" />
    </filter>
    <filter
       style="color-interpolation-filters:sRGB;"
       inkscape:label="Color Shift"
       id="filter6571"
       x="0"
       y="0"
       width="1"
       height="1">
      <feColorMatrix
         type="hueRotate"
         values="330"
         result="color1"
         id="feColorMatrix6567" />
      <feColorMatrix
         type="saturate"
         values="0.278962"
         result="fbSourceGraphic"
         id="feColorMatrix6569" />
      <feColorMatrix
         result="fbSourceGraphicAlpha"
         in="fbSourceGraphic"
         values="0 0 0 -1 0 0 0 0 -1 0 0 0 0 -1 0 0 0 0 1 0"
         id="feColorMatrix6711" />
      <feColorMatrix
         id="feColorMatrix6713"
         type="hueRotate"
         values="330"
         result="color1"
         in="fbSourceGraphic" />
      <feColorMatrix
         id="feColorMatrix6715"
         type="saturate"
         values="0.28"
         result="color2" />
    </filter>
    <filter
       style="color-interpolation-filters:sRGB;"
       inkscape:label="Color Shift"
       id="filter6577"
       x="0"
       y="0"
       width="1"
       height="1">
      <feColorMatrix
         type="hueRotate"
         values="330"
         result="color1"
         id="feColorMatrix6573" />
      <feColorMatrix
         type="saturate"
         values="0.278962"
         result="fbSourceGraphic"
         id="feColorMatrix6575" />
      <feColorMatrix
         result="fbSourceGraphicAlpha"
         in="fbSourceGraphic"
         values="0 0 0 -1 0 0 0 0 -1 0 0 0 0 -1 0 0 0 0 1 0"
         id="feColorMatrix6717" />
      <feColorMatrix
         id="feColorMatrix6719"
         type="hueRotate"
         values="330"
         result="color1"
         in="fbSourceGraphic" />
      <feColorMatrix
         id="feColorMatrix6721"
         type="saturate"
         values="0.28"
         result="color2" />
    </filter>
    <filter
       style="color-interpolation-filters:sRGB;"
       inkscape:label="Color Shift"
       id="filter6583"
       x="0"
       y="0"
       width="1"
       height="1">
      <feColorMatrix
         type="hueRotate"
         values="330"
         result="color1"
         id="feColorMatrix6579" />
      <feColorMatrix
         type="saturate"
         values="0.278962"
         result="fbSourceGraphic"
         id="feColorMatrix6581" />
      <feColorMatrix
         result="fbSourceGraphicAlpha"
         in="fbSourceGraphic"
         values="0 0 0 -1 0 0 0 0 -1 0 0 0 0 -1 0 0 0 0 1 0"
         id="feColorMatrix6723" />
      <feColorMatrix
         id="feColorMatrix6725"
         type="hueRotate"
         values="330"
         result="color1"
         in="fbSourceGraphic" />
      <feColorMatrix
         id="feColorMatrix6727"
         type="saturate"
         values="0.28"
         result="color2" />
    </filter>
    <filter
       style="color-interpolation-filters:sRGB;"
       inkscape:label="Color Shift"
       id="filter6589"
       x="0"
       y="0"
       width="1"
       height="1">
      <feColorMatrix
         type="hueRotate"
         values="330"
         result="color1"
         id="feColorMatrix6585" />
      <feColorMatrix
         type="saturate"
         values="0.278962"
         result="fbSourceGraphic"
         id="feColorMatrix6587" />
      <feColorMatrix
         result="fbSourceGraphicAlpha"
         in="fbSourceGraphic"
         values="0 0 0 -1 0 0 0 0 -1 0 0 0 0 -1 0 0 0 0 1 0"
         id="feColorMatrix6729" />
      <feColorMatrix
         id="feColorMatrix6731"
         type="hueRotate"
         values="330"
         result="color1"
         in="fbSourceGraphic" />
      <feColorMatrix
         id="feColorMatrix6733"
         type="saturate"
         values="0.28"
         result="color2" />
    </filter>
    <filter
       style="color-interpolation-filters:sRGB;"
       inkscape:label="Color Shift"
       id="filter6595"
       x="0"
       y="0"
       width="1"
       height="1">
      <feColorMatrix
         type="hueRotate"
         values="330"
         result="color1"
         id="feColorMatrix6591" />
      <feColorMatrix
         type="saturate"
         values="0.278962"
         result="fbSourceGraphic"
         id="feColorMatrix6593" />
      <feColorMatrix
         result="fbSourceGraphicAlpha"
         in="fbSourceGraphic"
         values="0 0 0 -1 0 0 0 0 -1 0 0 0 0 -1 0 0 0 0 1 0"
         id="feColorMatrix6735" />
      <feColorMatrix
         id="feColorMatrix6737"
         type="hueRotate"
         values="330"
         result="color1"
         in="fbSourceGraphic" />
      <feColorMatrix
         id="feColorMatrix6739"
         type="saturate"
         values="0.28"
         result="color2" />
    </filter>
    <filter
       style="color-interpolation-filters:sRGB;"
       inkscape:label="Color Shift"
       id="filter6601"
       x="0"
       y="0"
       width="1"
       height="1">
      <feColorMatrix
         type="hueRotate"
         values="330"
         result="color1"
         id="feColorMatrix6597" />
      <feColorMatrix
         type="saturate"
         values="0.278962"
         result="fbSourceGraphic"
         id="feColorMatrix6599" />
      <feColorMatrix
         result="fbSourceGraphicAlpha"
         in="fbSourceGraphic"
         values="0 0 0 -1 0 0 0 0 -1 0 0 0 0 -1 0 0 0 0 1 0"
         id="feColorMatrix6741" />
      <feColorMatrix
         id="feColorMatrix6743"
         type="hueRotate"
         values="330"
         result="color1"
         in="fbSourceGraphic" />
      <feColorMatrix
         id="feColorMatrix6745"
         type="saturate"
         values="0.28"
         result="color2" />
    </filter>
  </defs>
  <sodipodi:namedview
     id="namedview186"
     pagecolor="#ffffff"
     bordercolor="#666666"
     borderopacity="1.0"
     inkscape:pageshadow="2"
     inkscape:pageopacity="0.0"
     inkscape:pagecheckerboard="0"
     showgrid="false"
     inkscape:zoom="0.281"
     inkscape:cx="1613.879"
     inkscape:cy="1500"
     inkscape:window-width="1920"
     inkscape:window-height="1018"
     inkscape:window-x="0"
     inkscape:window-y="0"
     inkscape:window-maximized="1"
     inkscape:current-layer="svg184" />
  <rect
     width="3000"
     height="3000"
     fill="none"
     id="rect2" />
  <path
     fill="#eaf0f3"
     d="m 920.14931,1937.7246 5.24841,-58.0184 -253.54765,-41.5284 -225.20736,202.2702 3.08128,57.5411 267.88133,47.0619 z"
     class="colorec521d svgShape"
     id="path4"
     style="stroke-width:0.940063;filter:url(#filter6481)" />
  <path
     fill="#2fbefd"
     d="m 925.51593,1879.5824 -252.95859,-42.9217 -225.91463,203.7855 266.71599,39.9442 z"
     class="colorfdc82f svgShape"
     id="path6"
     style="stroke-width:0.940063;filter:url(#filter6487)" />
  <path
     d="m 719.13118,2144.6087 -3.8053,-64.3134 c -0.0591,-0.9896 -0.98703,-1.7476 -2.07357,-1.6947 -1.08652,0.053 -1.91988,0.899 -1.86078,1.8884 l 3.8053,64.3134 c 0.0591,0.9896 0.98703,1.7485 2.07356,1.6947 1.08653,-0.053 1.91989,-0.899 1.86079,-1.8884 z"
     fill="#000000"
     class="color000000 svgShape"
     id="path8"
     style="stroke-width:0.940063;filter:url(#filter6493)" />
  <path
     fill="#0e4d69"
     d="m 919.11203,1859.3345 5.24941,-58.0184 -253.54864,-41.5283 -225.20737,202.2701 3.08227,57.5412 267.88034,47.0618 z"
     class="color0e6950 svgShape"
     id="path10"
     style="stroke-width:0.940063;filter:url(#filter6499)" />
  <path
     fill="#0081bb"
     d="m 924.47867,1801.2013 -252.9586,-42.9216 -225.91464,203.7854 266.71601,39.9441 z"
     class="color00bb86 svgShape"
     id="path12"
     style="stroke-width:0.940063;filter:url(#filter6505)" />
  <path
     d="m 718.09489,2066.2186 -3.80629,-64.3134 c -0.0581,-0.9895 -0.98703,-1.7476 -2.07355,-1.6947 -1.08653,0.053 -1.91891,0.899 -1.86079,1.8884 0,0 3.80628,64.3135 3.80628,64.3135 0.0581,0.9895 0.98605,1.7484 2.07259,1.6946 1.08652,-0.053 1.91988,-0.8989 1.86176,-1.8884 z"
     fill="#000000"
     class="color000000 svgShape"
     id="path14"
     style="stroke-width:0.940063;filter:url(#filter6511)" />
  <path
     fill="#52add6"
     d="M 2697.6869,812.45307 C 2652.8793,635.27968 2412.6024,580.41561 2111.624,556.45272 V 922.7428 c 302.921,-19.6908 495.7799,95.0253 590.1844,329.973 z"
     class="color5266d6 svgShape"
     id="path16"
     style="stroke-width:0.940063;filter:url(#filter6517)" />
  <path
     fill="#0081bb"
     d="m 2375.3345,626.05822 c -78.3677,-18.00154 -153.3666,-20.65701 -226.7765,-16.08171 v 269.64817 c 69.4756,-7.10964 149.3022,-12.55963 226.9637,23.30082 z"
     class="color00bb86 svgShape"
     id="path18"
     style="stroke-width:0.940063;filter:url(#filter6523)" />
  <path
     fill="#eaf0f3"
     d="m 2599.9193,725.70726 c -51.4174,-52.18797 -127.1374,-81.14601 -189.9598,-90.59713 v 277.87115 c 42.0416,2.19614 109.5036,26.7583 172.8216,102.86422 z"
     class="colorec521d svgShape"
     id="path20"
     style="stroke-width:0.940063;filter:url(#filter6529)" />
  <path
     fill="#d5dee2"
     d="m 2697.7067,812.74463 c -25.6748,114.30254 -122.7893,184.69839 -240.1932,244.10367 v 406.96 c 94.3386,-52.318 183.4495,-119.3614 244.3225,-211.1221 z"
     class="color98a8ff svgShape"
     id="path22"
     style="stroke-width:0.940063;filter:url(#filter6535)" />
  <path
     fill="#74cbf1"
     d="M 1862.1948,540.95593 C 1545.277,508.70368 1217.2092,532.30055 880.01089,601.63242 V 1012.7497 C 1204.954,942.52782 1531.8427,891.20646 1862.1948,914.57187 Z"
     class="color7487f1 svgShape"
     id="path24"
     style="stroke-width:0.940063;filter:url(#filter6541)" />
  <path
     fill="#ffffff"
     d="m 1308.1848,836.54513 309.0147,-34.29587 c 1.0796,-0.11932 1.849,-1.01464 1.717,-1.99788 -0.1321,-0.98414 -1.1141,-1.68389 -2.1938,-1.56367 l -309.0146,34.29497 c -1.0807,0.12022 -1.849,1.01464 -1.718,1.99788 0.132,0.98415 1.1141,1.68389 2.1947,1.56457 z m -279.1445,-25.21435 424.2032,-40.34783 c 1.0825,-0.10228 1.8676,-0.98503 1.7553,-1.97007 -0.1133,-0.98593 -1.0826,-1.70183 -2.1642,-1.59866 l -424.2031,40.34782 c -1.0826,0.10317 -1.8677,0.98504 -1.7544,1.97097 0.1123,0.98593 1.0816,1.70094 2.1632,1.59777 z m 451.8568,-40.34424 258.0661,-20.17347 c 1.0837,-0.0852 1.8875,-0.95453 1.7939,-1.94136 -0.093,-0.98773 -1.0471,-1.71888 -2.1307,-1.63455 l -258.0662,20.17437 c -1.0845,0.0843 -1.8873,0.95363 -1.7948,1.94046 0.093,0.98772 1.0472,1.71887 2.1317,1.63455 z m -334.7937,-28.15064 365.5012,-39.33946 c 1.0805,-0.11573 1.8528,-1.00836 1.7248,-1.99249 -0.128,-0.98415 -1.1073,-1.68749 -2.1878,-1.57086 l -365.5012,39.33857 c -1.0806,0.11663 -1.853,1.00836 -1.7249,1.9925 0.1271,0.98413 1.1072,1.68747 2.1879,1.57174 z m 406.4296,-39.33408 206.0094,-17.14838 c 1.0836,-0.0897 1.8815,-0.96261 1.783,-1.94943 -0.099,-0.98683 -1.058,-1.7135 -2.1415,-1.62379 l -206.0095,17.14749 c -1.0836,0.0906 -1.8825,0.96351 -1.783,1.95033 0.099,0.98683 1.058,1.7135 2.1416,1.62378 z m -483.8902,-16.19296 690.7418,-51.44336 c 1.0846,-0.0808 1.8914,-0.94646 1.8027,-1.93419 -0.089,-0.98772 -1.0393,-1.72335 -2.1238,-1.64262 l -690.7418,51.44337 c -1.0845,0.0808 -1.8913,0.94735 -1.8027,1.93508 0.089,0.98773 1.0393,1.72247 2.1238,1.64172 z M 944.65277,644.8573 c 0,0 262.67823,-35.44329 460.49793,-36.92084 1.0884,-0.008 1.9632,-0.81728 1.9543,-1.80859 -0.01,-0.99041 -0.8984,-1.78705 -1.9869,-1.77898 -198.0531,1.47845 -461.04257,36.95852 -461.04257,36.95852 -1.07668,0.14533 -1.81941,1.0577 -1.66082,2.03735 0.15958,0.98055 1.16139,1.65787 2.23806,1.51254 z m 513.80463,-35.55543 c 0,0 246.003,-18.15226 301.2021,-13.61823 1.0846,0.0888 2.042,-0.63875 2.1396,-1.62557 0.097,-0.98773 -0.7014,-1.85973 -1.785,-1.94854 -55.3231,-4.5439 -301.8749,13.61643 -301.8749,13.61643 -1.0845,0.0798 -1.8923,0.94467 -1.8047,1.93239 0.088,0.98773 1.0383,1.72426 2.1229,1.64352 z"
     class="colorffffff svgShape"
     id="path26"
     style="stroke-width:0.940063;filter:url(#filter6547)" />
  <g
     fill="#000000"
     class="color000000 svgShape"
     id="g54"
     transform="matrix(0.98506426,0,0,0.89711677,3.9006477,54.192034)"
     style="filter:url(#filter6553)">
    <path
       fill="#111314"
       d="m 2004.91,734.238 -29.874,62.994 c 132.807,156.261 -119.183,300.338 -119.183,300.338 0,0 19.173,137.847 -21.942,171.312 -28.807,23.446 -112.496,7.828 -124.108,-26.27 -13.533,-39.74 32.615,-149.972 -0.843,-182.421 -223.127,-216.394 153.018,-445.343 295.95,-325.953 z"
       class="color141112 svgShape"
       id="path28" />
    <path
       fill="#008fce"
       d="m 2063.76,1235.7 c -54.945,-45.477 -179.607,-14.076 -227.235,39.016 -86.303,96.202 -213.302,334.097 -288.666,524.782 248.161,59.963 496.321,95.11 744.482,-32.75 l -87.73,-210.733 c 58.742,-150.381 -82.857,-272.314 -140.851,-320.315 z"
       class="color0062ce svgShape"
       id="path30" />
    <path
       fill="#2fbefd"
       d="m 2063.76,1235.7 c -54.945,-45.477 -179.607,-14.076 -227.235,39.016 -86.303,96.202 -213.302,334.097 -288.666,524.782 167.231,61.388 480.961,57.137 527.829,40.868 0,0 46.066,-556.665 -11.928,-604.666 z"
       class="colorfdc82f svgShape"
       id="path32" />
    <path
       fill="#8bdafd"
       d="m 1965.26,1077.55 -142.274,-53.562 12.189,276.78 210.728,-41.202 z"
       class="colorfd8b98 svgShape"
       id="path34" />
    <path
       fill="#111314"
       d="m 1965.26,1077.55 -99.026,-37.28 c 18.476,54.571 59.872,86.223 124.459,94.684 z"
       class="color141112 svgShape"
       id="path36" />
    <path
       fill="#8bdafd"
       d="m 1849.49,757.556 c 70.431,0 172.32,155.085 182.551,222.429 12.63,83.132 -44.531,131.668 -111.242,128.692 -24.268,-1.083 -90.719,-22.927 -90.719,-22.927 0,0 -108.141,33.738 -130.464,-109.151 -12.979,-83.078 79.442,-219.043 149.874,-219.043 z"
       class="colorfd8b98 svgShape"
       id="path38" />
    <path
       fill="#111314"
       d="m 1925.02,873.29 40.17,95.578 c 0,0 -14.044,14.483 -14.044,14.483 -0.769,0.793 -0.749,2.059 0.044,2.828 0.793,0.769 2.059,0.749 2.828,-0.044 l 14.964,-15.431 c 0.558,-0.575 0.718,-1.428 0.408,-2.167 l -40.683,-96.797 c -0.428,-1.018 -1.6,-1.496 -2.619,-1.068 -1.018,0.428 -1.496,1.6 -1.068,2.618 z m -35.31,38.66 c 8.687,-1.83 18.142,8.083 21.1,22.125 2.959,14.041 -1.693,26.926 -10.38,28.757 -8.687,1.83 -18.142,-8.084 -21.101,-22.125 -2.958,-14.041 1.693,-26.927 10.381,-28.757 z m 78.56,-19.28 c 6.789,-1.43 14.234,6.585 16.616,17.888 2.381,11.303 -1.197,21.641 -7.986,23.071 -6.789,1.43 -14.235,-6.585 -16.616,-17.888 -2.381,-11.303 1.197,-21.64 7.986,-23.071 z"
       class="color141112 svgShape"
       id="path40" />
    <path
       fill="#ffffff"
       d="m 1941.47,1025.65 c 0.665,-5.453 37.572,-28.53 45.02,-26.402 7.449,2.128 5.17,31.488 -0.678,36.208 -6.823,5.507 -45.008,-4.352 -44.342,-9.806 z"
       class="colorffffff svgShape"
       id="path42" />
    <path
       fill="#111314"
       d="m 2004.91,734.238 c 0,0 -20.593,80.303 -109.224,149.739 -34.403,26.953 -70.86,31.076 -70.86,31.076 l -19.913,98.319 c -22.552,-44.888 -58.696,-27.095 -66.476,-16.966 -12.088,15.736 -10.343,106.302 89.598,89.071 0,0 -16.742,27.42 -71.871,7.52 -16.292,-5.882 -36.483,-22.408 -47.204,-32.806 -223.127,-216.394 153.018,-445.343 295.95,-325.953 z"
       class="color141112 svgShape"
       id="path44" />
    <path
       fill="#2fbefd"
       d="m 2078.28,1175.03 c -50.982,6.661 -199.193,63.089 -237.086,97.841 -52.898,48.513 26.387,182.727 89.119,184.947 51.383,1.819 192.389,-74.245 237.674,-98.594 120.167,-64.611 55.509,-203.166 -89.707,-184.194 z"
       class="colorfdc82f svgShape"
       id="path46" />
    <path
       fill="#8bdafd"
       d="m 2443.09,769.106 c 0,0 68.222,-42.477 56.328,-62.617 -6.441,-10.905 -58.146,0.566 -108.785,44.455 -20.749,17.983 -78.703,106.054 -78.703,106.054 l 89.867,61.958 25.198,-43.834 c 26.445,10.434 46.702,-27.118 54.828,-43.75 4.55,-9.314 -5.247,-32.682 -9.339,-31.903 -1.803,-9.709 -6.934,-16.275 -15.24,-19.842 2.226,-1.884 -6.812,-10.146 -14.154,-10.521 z"
       class="colorfd8b98 svgShape"
       id="path48" />
    <path
       fill="#2fbefd"
       d="m 2428.51,876.428 18.429,-21.398 c 0.721,-0.836 0.627,-2.099 -0.21,-2.82 -0.837,-0.721 -2.1,-0.627 -2.82,0.21 0,0 -18.43,21.397 -18.43,21.397 -0.721,0.837 -0.627,2.1 0.21,2.821 0.837,0.721 2.1,0.627 2.821,-0.21 z M 2313.2,846.862 c 0,0 -272.927,345.98 -288.585,394.954 -32.802,102.593 110.194,155.155 182.365,85.829 37.08,-35.617 226.019,-400.242 226.019,-400.242 z"
       class="colorfdc82f svgShape"
       id="path50" />
    <path
       d="m 2055.81,1185.47 c -17.906,26.351 -30.114,46.406 -33.099,55.741 -0.336,1.052 0.244,2.177 1.296,2.514 1.052,0.336 2.178,-0.244 2.514,-1.296 2.932,-9.171 15.007,-28.823 32.598,-54.711 0.62,-0.913 0.383,-2.157 -0.531,-2.778 -0.913,-0.621 -2.157,-0.383 -2.778,0.53 z m -215.97,85.93 c -21.697,19.899 -21.999,53.825 -10.083,87.559 10.574,29.934 30.678,59.682 53.284,78.986 15.293,13.059 31.753,21.328 47.199,21.875 15.594,0.552 39.362,-5.929 66.213,-16.019 62.02,-23.305 140.735,-65.744 172.479,-82.812 0.973,-0.523 1.337,-1.736 0.814,-2.709 -0.523,-0.973 -1.735,-1.337 -2.708,-0.814 -31.655,17.02 -110.145,59.35 -171.992,82.591 -26.234,9.858 -49.428,16.305 -64.664,15.766 -14.666,-0.519 -30.224,-8.521 -44.743,-20.92 -22.114,-18.884 -41.767,-47.994 -52.11,-77.276 -11.325,-32.06 -11.606,-64.368 9.015,-83.279 0.814,-0.747 0.869,-2.012 0.122,-2.826 -0.747,-0.814 -2.012,-0.869 -2.826,-0.122 z"
       fill="#000000"
       class="color000000 svgShape"
       id="path52" />
  </g>
  <g
     fill="#000000"
     class="color000000 svgShape"
     id="g62"
     transform="matrix(0.98506426,0,0,0.89711677,3.9006477,54.192034)"
     style="filter:url(#filter6559)">
    <path
       fill="#eaf0f3"
       d="m 1656.39,2196.76 -6.813,-56.494 -379.515,24.467 -206.787,-66.782 -240.651,201.619 -2.41,38.98 29.873,13.434 -31.134,6.953 -1.427,23.091 287.594,84.358 444.803,6.879 z"
       class="colorec521d svgShape"
       id="path56" />
    <path
       fill="#2fbefd"
       d="m 1651.09,2138.96 c -144.26,-62.714 -271.712,-55.952 -381.027,25.775 -57.706,-76.737 -147.09,-120.578 -263.949,-135.887 l -207.783,257.202 306.79,180.338 434.898,-62.097 z"
       class="colorfdc82f svgShape"
       id="path58" />
    <path
       d="m 1268.31,2163.78 -164.942,301.653 c -0.53,0.969 -0.174,2.184 0.796,2.714 0.969,0.53 2.184,0.174 2.714,-0.795 l 164.942,-301.653 c 0.53,-0.969 0.174,-2.184 -0.795,-2.714 -0.969,-0.53 -2.185,-0.174 -2.715,0.795 z"
       fill="#000000"
       class="color000000 svgShape"
       id="path60" />
  </g>
  <path
     fill="#008fce"
     d="m 1061.5642,1504.2287 -305.28526,-88.7875 -249.1986,90.2489 351.10251,112.7766 z"
     class="color0062ce svgShape"
     id="path64"
     style="stroke-width:0.940063;filter:url(#filter6565)" />
  <g
     fill="#000000"
     class="color000000 svgShape"
     id="g106"
     transform="matrix(0.98506426,0,0,0.89711677,3.9006477,54.192034)"
     style="filter:url(#filter6571)">
    <path
       fill="#111314"
       d="m 1025.6,676.586 c 55.962,-48.836 263.746,-74.813 296.67,165.391 13.998,102.13 -83.934,175.231 -112.136,174.998 -1.004,-0.01 -15.618,1.917 -30.856,-3.248 -73.287,-24.842 -272.68,-143.685 -272.68,-143.685 50.605,-41.149 31.962,-114.592 91.463,-143.337 0,0 13.661,-38.008 27.539,-50.119 z"
       class="color141112 svgShape"
       id="path66" />
    <path
       fill="#0081bb"
       d="m 1050.45,1207.73 c 17.083,-117.071 -76.182,-143.408 -126.534,-60.073 -22.145,36.652 -60.155,126.485 -87.87,206.746 -70.811,205.068 104.312,225.017 156.758,73.548 25.884,-74.753 51.367,-177.188 57.646,-220.221 z"
       class="color00bb86 svgShape"
       id="path68" />
    <path
       fill="#8bdafd"
       d="m 692.017,1486.26 c 0,0 -64.073,18.217 -94.132,46.519 -4.328,4.074 -5.869,18.956 10.186,14.635 -7.426,8.872 -3.3,18.423 13.038,15.662 -6.266,8.422 2.815,16.579 12.418,16.074 -4.884,5.205 1.014,13.948 12.15,11.711 0,0 29.61,-15.588 48.17,-13.487 27.272,3.085 53.446,-11.758 53.446,-11.758 z"
       class="colorfd8b98 svgShape"
       id="path70" />
    <path
       fill="#2fbefd"
       d="m 608.942,1549.21 44.156,-21.34 c 0.995,-0.48 1.412,-1.676 0.931,-2.671 -0.481,-0.994 -1.677,-1.411 -2.671,-0.93 l -44.157,21.339 c -0.994,0.481 -1.411,1.677 -0.93,2.671 0.48,0.995 1.676,1.412 2.671,0.931 z m 12.867,15.51 36.757,-15.477 c 1.018,-0.429 1.496,-1.601 1.067,-2.619 -0.428,-1.018 -1.601,-1.496 -2.619,-1.068 l -36.758,15.477 c -1.018,0.429 -1.495,1.602 -1.067,2.62 0.429,1.018 1.602,1.496 2.62,1.067 z m 12.993,16.05 26.31,-11.608 c 1.011,-0.446 1.469,-1.626 1.023,-2.637 -0.446,-1.011 -1.627,-1.468 -2.637,-1.023 l -26.311,11.608 c -1.01,0.446 -1.468,1.627 -1.022,2.637 0.445,1.011 1.626,1.469 2.637,1.023 z"
       class="colorfdc82f svgShape"
       id="path72" />
    <path
       fill="#0081bb"
       d="m 670.181,1492.78 c 31.073,13.759 51.569,49.077 54.167,83.456 0,0 120.264,-15.848 177.456,-46.177 146.127,-77.489 43.701,-207.439 -64.327,-150.306 -53.314,28.196 -167.296,113.027 -167.296,113.027 z"
       class="color00bb86 svgShape"
       id="path74" />
    <path
       fill="#0081bb"
       d="m 1277.66,1169.04 c -46.352,-83.575 -212.564,-103.667 -307.643,8.654 -64.862,76.625 -94.142,467.886 -94.142,467.886 l 399.763,24.264 c 0,0 51.256,-412.033 2.022,-500.804 z"
       class="color00bb86 svgShape"
       id="path76" />
    <path
       d="m 968.491,1176.4 c -19.589,23.141 -36.054,74.752 -49.367,135.72 -30.882,141.432 -45.244,333.309 -45.244,333.309 -0.082,1.102 0.744,2.061 1.845,2.144 1.102,0.082 2.062,-0.744 2.144,-1.845 0,0 14.333,-191.559 45.163,-332.754 13.136,-60.158 29.183,-111.156 48.512,-133.99 0.713,-0.843 0.608,-2.105 -0.235,-2.819 -0.843,-0.713 -2.105,-0.608 -2.818,0.235 z"
       fill="#000000"
       class="color000000 svgShape"
       id="path78" />
    <path
       fill="#8bdafd"
       d="m 1172.8,940.921 -125.068,54.255 -34.518,111.302 c 0,0 -14.03,89.904 16.817,91.065 31.696,1.193 173.361,-83.908 173.361,-83.908 z"
       class="colorfd8b98 svgShape"
       id="path80" />
    <path
       fill="#111314"
       d="m 1029.14,1055.14 c 69.052,-18.021 112.719,-46.921 105.456,-97.648 l -86.859,37.68 z"
       class="color141112 svgShape"
       id="path82" />
    <path
       fill="#0081bb"
       d="m 1311.91,1234.29 c -22.367,-116.178 -106.861,-116.066 -127.006,-20.807 -8.86,41.895 -27.46,144.919 -27.239,229.83 0.565,216.949 172.508,178.198 172.226,17.907 -0.139,-79.108 -9.76,-184.225 -17.981,-226.93 z"
       class="color00bb86 svgShape"
       id="path84" />
    <path
       fill="#8bdafd"
       d="m 877.034,1565.33 c 0,0 -64.073,18.218 -94.133,46.519 -4.327,4.075 -5.868,18.956 10.187,14.636 -7.426,8.871 -3.301,18.423 13.038,15.662 -6.267,8.422 2.814,16.578 12.417,16.073 -4.883,5.205 1.014,13.948 12.15,11.711 0,0 29.61,-15.587 48.171,-13.487 27.272,3.086 53.445,-11.758 53.445,-11.758 z"
       class="colorfd8b98 svgShape"
       id="path86" />
    <path
       fill="#000101"
       d="m 793.958,1628.29 44.157,-21.339 c 0.995,-0.481 1.411,-1.677 0.931,-2.671 -0.481,-0.995 -1.677,-1.411 -2.671,-0.931 l -44.157,21.34 c -0.995,0.481 -1.411,1.676 -0.931,2.671 0.481,0.994 1.677,1.411 2.671,0.93 z"
       class="color010100 svgShape"
       id="path88" />
    <path
       fill="#0081bb"
       d="m 856.841,1564.67 c 33.84,18.177 54.372,48.637 63,90.087 0,0 191.072,-14.887 272.767,-38.035 208.732,-59.143 125.948,-217.137 -28.309,-173.57 -76.129,21.502 -307.458,121.518 -307.458,121.518 z"
       class="color00bb86 svgShape"
       id="path90" />
    <path
       d="m 1182.94,1213.07 c -8.876,41.972 -27.504,145.184 -27.282,230.25 0,0.103 0,0.207 0,0.31 -83.185,25.64 -299.616,119.21 -299.616,119.21 -0.704,0.304 -1.172,0.984 -1.205,1.751 -0.032,0.766 0.376,1.483 1.052,1.846 33.32,17.897 53.493,47.92 61.988,88.733 0.205,0.985 1.11,1.664 2.113,1.586 0,0 191.344,-14.923 273.157,-38.104 24.817,-7.032 45.539,-15.457 62.533,-24.766 0.969,-0.531 1.324,-1.747 0.793,-2.715 -0.53,-0.969 -1.746,-1.324 -2.715,-0.794 -16.767,9.186 -37.216,17.488 -61.701,24.426 -77.005,21.819 -251.328,36.274 -270.632,37.826 -8.648,-39.738 -28.288,-69.339 -60.07,-87.724 29.127,-12.537 221.212,-94.847 296.894,-117.885 0.847,-0.258 1.424,-1.043 1.417,-1.929 0,-0.576 -0.01,-1.178 -0.01,-1.782 -0.221,-84.757 18.351,-187.592 27.196,-229.412 0.228,-1.08 -0.463,-2.142 -1.543,-2.37 -1.081,-0.229 -2.142,0.462 -2.371,1.543 z"
       fill="#000000"
       class="color000000 svgShape"
       id="path92" />
    <path
       fill="#000101"
       d="m 806.825,1643.79 36.758,-15.476 c 1.018,-0.429 1.496,-1.602 1.067,-2.62 -0.429,-1.018 -1.601,-1.496 -2.619,-1.067 l -36.758,15.477 c -1.018,0.429 -1.496,1.601 -1.067,2.619 0.428,1.018 1.601,1.496 2.619,1.067 z m 12.993,16.05 26.311,-11.607 c 1.011,-0.446 1.468,-1.627 1.023,-2.638 -0.446,-1.01 -1.627,-1.468 -2.637,-1.022 l -26.311,11.608 c -1.011,0.445 -1.469,1.626 -1.023,2.637 0.446,1.01 1.627,1.468 2.637,1.022 z"
       class="color010100 svgShape"
       id="path94" />
    <path
       fill="#8bdafd"
       d="m 1126.63,721.166 c 73.677,0 129.297,117.186 103.875,196.014 -24.888,77.176 -65.483,36.98 -65.483,36.98 -15.263,39.504 -117.67,90.564 -148.507,56.083 -26.445,-29.57 -48.164,-63.334 -36.761,-129.08 14.745,-85.02 73.2,-159.997 146.876,-159.997 z"
       class="colorfd8b98 svgShape"
       id="path96" />
    <path
       fill="#111314"
       d="m 1025.6,676.586 c 58.567,-45.679 263.746,-74.813 296.67,165.391 13.998,102.13 -85.061,133.514 -113.263,133.282 -5.835,-0.048 10.153,-41.724 6.458,-63.262 -8.945,-52.139 -47.494,-13.019 -47.494,-13.019 -6.957,-26.422 -23.587,-45.717 -12.427,-74.108 l -26.029,0.737 -17.414,-23.826 -7.524,21.692 -25.008,-1.437 -10.645,-32.609 -19.986,38.427 -49.193,-14.154 c 0,0 -18.983,-102.143 25.855,-137.114 z"
       class="color141112 svgShape"
       id="path98" />
    <path
       fill="#111314"
       d="m 1064.32,826.357 -45.207,73.67 c -0.493,0.803 -0.359,1.84 0.322,2.491 l 12.837,12.279 c 0.798,0.763 2.064,0.735 2.827,-0.063 0.764,-0.798 0.736,-2.064 -0.062,-2.828 l -11.671,-11.163 c 0,0 44.363,-72.294 44.363,-72.294 0.578,-0.942 0.283,-2.173 -0.658,-2.751 -0.942,-0.578 -2.173,-0.283 -2.751,0.659 z m 33.72,8.657 c 6.147,1.086 9.7,10.111 7.928,20.141 -1.772,10.03 -8.202,17.292 -14.349,16.206 -6.148,-1.086 -9.7,-10.111 -7.928,-20.142 1.772,-10.03 8.201,-17.291 14.349,-16.205 z m -66.03,-8.165 c 5.199,0.817 8.291,8.672 6.9,17.531 -1.391,8.858 -6.742,15.388 -11.941,14.571 -5.2,-0.816 -8.292,-8.671 -6.901,-17.53 1.391,-8.859 6.742,-15.388 11.942,-14.572 z"
       class="color141112 svgShape"
       id="path100" />
    <path
       fill="#ffffff"
       d="m 1016.03,941.425 80.011,-8.382 c 0,0 -42.748,42.677 -56.084,44.074 -13.335,1.397 -23.927,-35.692 -23.927,-35.692 z"
       class="colorffffff svgShape"
       id="path102" />
    <path
       fill="#3d3d3d"
       d="m 1188.93,769.938 c -5.739,-11.082 -30.037,-16.395 -30.037,-16.395 l 6.952,24.688 28.457,7.694 c 0,0 0.605,-4.447 -5.372,-15.987 z m -59.79,-28.43 c -5.739,-11.082 -34.14,-17.86 -34.14,-17.86 l 3.434,35.239 41.353,16.487 c 0,0 -4.671,-22.326 -10.647,-33.866 z m -55.641,-30.568 c -5.739,-11.082 -28.302,-21.982 -28.302,-21.982 l -16.486,62.717 47.535,7.556 c 0,0 3.229,-36.751 -2.747,-48.291 z"
       class="color3d3d3d svgShape"
       id="path104" />
  </g>
  <path
     fill="#008fce"
     d="m 783.87453,1386.7424 -322.77798,-99.7406 45.98575,218.6902 351.10252,112.7765 z"
     class="color0062ce svgShape"
     id="path108"
     style="stroke-width:0.940063;filter:url(#filter6577)" />
  <path
     fill="#ffffff"
     d="m 625.23288,1422.5014 c 15.03504,4.4094 29.73417,19.9402 32.8056,34.6611 3.07044,14.7198 -6.64328,23.0917 -21.67831,18.6824 -15.03503,-4.4093 -29.73417,-19.9402 -32.80461,-34.6611 -3.07044,-14.7198 6.64328,-23.0917 21.67732,-18.6824 z"
     class="colorffffff svgShape"
     id="path110"
     style="stroke-width:0.940063;filter:url(#filter6583)" />
  <g
     fill="#000000"
     class="color000000 svgShape"
     id="g164"
     transform="matrix(0.98506426,0,0,0.89711677,3.9006477,54.192034)"
     style="filter:url(#filter6589)">
    <path
       fill="#008fce"
       d="m 1404.88,1703.5 c 65.83,-207.964 1.958,-403.957 -204.846,-173.756 -28.787,32.044 -69.667,136.485 -114.098,220.541 -174.289,329.722 125.48,369.527 225.128,180.762 40.558,-76.83 90.596,-217.376 93.816,-227.547 z"
       class="color0062ce svgShape"
       id="path112" />
    <path
       fill="#8bdafd"
       d="m 617.443,1975.37 c -14.721,35.22 0.121,35.328 0.121,35.328 4.362,6.902 7.063,13.123 24.732,9.946 -2.482,8.346 11.05,19.281 27.953,6.931 8.438,15.284 33.221,11.932 47.883,-8.348 -6.769,13.053 14.151,29.885 34.2,13.829 23.456,-22.546 46.916,-34.248 81.055,-36.318 L 798.49,1854.736 c 0,0 -40.311,-2.675 -99.083,34.421 -32.594,20.573 -73.431,65.8 -81.964,86.213 z"
       class="colorfd8b98 svgShape"
       id="path114" />
    <path
       d="m 673.623,2028.65 c 0,0 14.459,-26.055 44.175,-42.429 0.968,-0.533 1.32,-1.75 0.787,-2.717 -0.533,-0.968 -1.75,-1.32 -2.717,-0.787 -30.791,16.966 -45.744,43.995 -45.744,43.995 -0.535,0.966 -0.186,2.183 0.78,2.719 0.967,0.535 2.184,0.186 2.719,-0.781 z m 45.7,-6.042 c 0,0 6.95,-11.781 36.52,-28.075 0.968,-0.533 1.32,-1.75 0.787,-2.717 -0.533,-0.967 -1.75,-1.319 -2.717,-0.786 -30.937,17.046 -38.052,29.575 -38.052,29.575 -0.554,0.956 -0.227,2.18 0.729,2.733 0.956,0.553 2.18,0.226 2.733,-0.73 z m -74.518,-1.873 c 0,0 22.053,-35.975 51.893,-52.418 0.967,-0.533 1.319,-1.749 0.786,-2.717 -0.533,-0.967 -1.749,-1.319 -2.717,-0.786 -30.666,16.898 -53.371,53.828 -53.371,53.828 -0.578,0.941 -0.284,2.173 0.658,2.751 0.941,0.578 2.173,0.283 2.751,-0.658 z m -25.573,-8.935 c 0,0 29.921,-45.339 59.842,-61.826 0.967,-0.533 1.319,-1.75 0.786,-2.717 -0.533,-0.967 -1.749,-1.32 -2.717,-0.787 -30.585,16.854 -61.248,63.123 -61.248,63.123 -0.609,0.922 -0.356,2.163 0.565,2.772 0.922,0.609 2.162,0.356 2.772,-0.565 z"
       fill="#000000"
       class="color000000 svgShape"
       id="path116" />
    <path
       fill="#008fce"
       d="m 774.501,1850.71 c 25.021,52.595 48.158,105.681 32.946,150.308 0,0 236.016,37.896 328.339,44.65 155.39,11.368 252.933,-218.833 -87.21,-205.869 -52.86,2.014 -274.075,10.911 -274.075,10.911 z"
       class="color0062ce svgShape"
       id="path118" />
    <path
       fill="#111314"
       d="m 1116.61,1838.68 c -20.445,-1.477 -43.1,-1.835 -68.115,-0.882 -1.103,0.042 -1.964,0.971 -1.922,2.075 0.042,1.104 0.971,1.964 2.075,1.922 24.852,-0.947 47.361,-0.593 67.674,0.875 1.102,0.079 2.06,-0.749 2.139,-1.851 0.08,-1.102 -0.749,-2.059 -1.851,-2.139 z"
       class="color141112 svgShape"
       id="path120" />
    <path
       fill="#008fce"
       d="m 1818.74,1489.48 c -103.624,-83.491 -445.834,-77.415 -513.09,36.226 -65.065,109.939 -67.604,582.414 -67.604,582.414 l 515.471,32.297 c 0,0 168.278,-567.905 65.223,-650.937 z"
       class="color0062ce svgShape"
       id="path122" />
    <path
       d="m 1303.93,1524.69 c -19.607,33.129 -33.63,99.014 -43.558,175.045 -23.078,176.724 -24.325,408.377 -24.325,408.377 -0.01,1.105 0.885,2.005 1.989,2.011 1.105,0.01 2.005,-0.885 2.011,-1.989 0,0 1.241,-231.372 24.291,-407.881 9.84,-75.356 23.602,-140.691 43.034,-173.525 0.563,-0.951 0.248,-2.178 -0.702,-2.74 -0.951,-0.563 -2.178,-0.248 -2.74,0.702 z"
       fill="#000000"
       class="color000000 svgShape"
       id="path124" />
    <path
       fill="#ffffff"
       d="m 1382.49,1828.78 264.052,-393.069 c -93.916,-7.975 -186.365,0.177 -276.234,36.712 z"
       class="colorffffff svgShape"
       id="path126" />
    <path
       fill="#8bdafd"
       d="m 1568.34,1237.33 -168.289,83.628 -17.552,189.713 c 4.014,97.716 123.113,135.91 231.547,-38.319 z"
       class="colorfd8b98 svgShape"
       id="path128" />
    <path
       fill="#111314"
       d="m 1390.32,1426.1 c 56.567,-30.072 136.119,-82.017 118.111,-159.003 l -108.383,53.859 z"
       class="color141112 svgShape"
       id="path130" />
    <path
       fill="#8bdafd"
       d="m 1435.07,918.496 c 113.966,-40.604 219.144,129.869 207.19,219.439 -18.983,142.243 -78.396,112.73 -78.396,112.73 0,0 -41.208,80.148 -131.828,104.662 -54.347,14.702 -109.209,1.404 -136.064,-34.121 -21.56,-28.521 -3.769,-351.808 139.098,-402.71 z"
       class="colorfd8b98 svgShape"
       id="path132" />
    <path
       fill="#111314"
       d="m 1311.72,955.879 c 123.263,-161.64 265.249,-54.279 307.117,4.719 99.899,140.774 13.61,224.735 13.61,224.735 0,0 10.174,-55.866 -18.309,-69.205 -24.274,-11.368 -48.169,65.355 -48.169,65.355 -6.286,-28.35 -26.788,-32.552 -28.266,-56.587 -39.823,44.974 -194.809,-64.165 -202.859,-94.927 l -16.447,43.495 c 0,0 -28.034,-89.58 -6.677,-117.585 z"
       class="color141112 svgShape"
       id="path134" />
    <ellipse
       cx="1449.2"
       cy="1148.5601"
       fill="#111314"
       rx="12.913"
       ry="23.827"
       class="color141112 svgShape"
       id="ellipse136" />
    <path
       fill="#2fbefd"
       d="m 1458.67,1848.62 c 3.442,-7.681 0,-16.698 -7.676,-20.14 -10e-4,0 0,-10e-4 0,-10e-4 -7.682,-3.442 -16.698,-0.01 -20.14,7.676 -29.151,65.059 -136.248,323.955 -136.248,323.955 l 27.818,12.465 c 0,0 107.098,-258.896 136.248,-323.955 z"
       class="colorfdc82f svgShape"
       id="path138" />
    <path
       fill="#111314"
       d="m 1390.45,1092.35 -30.547,115.546 c -0.151,0.571 -0.042,1.179 0.298,1.662 0.34,0.483 0.876,0.791 1.465,0.842 l 23.242,1.992 c 1.1,0.094 2.069,-0.722 2.163,-1.822 0.094,-1.101 -0.721,-2.069 -1.822,-2.164 l -20.871,-1.789 c 0,0 29.939,-113.245 29.939,-113.245 0.282,-1.068 -0.355,-2.162 -1.423,-2.445 -1.068,-0.282 -2.162,0.355 -2.444,1.423 z"
       class="color141112 svgShape"
       id="path140" />
    <ellipse
       cx="1355.5"
       cy="1137.5"
       fill="#111314"
       rx="12.68"
       ry="27.796"
       class="color141112 svgShape"
       id="ellipse142" />
    <path
       fill="#008fce"
       d="m 1916.93,1694.72 c -23.73,-216.84 -237.366,-358.385 -246.875,-83.523 -2.247,64.963 -41.972,204.963 -31.094,291.307 31.661,251.318 337.196,472.74 314.154,87.743 -3.184,-53.188 -34.72,-282.143 -36.185,-295.527 z"
       class="color0062ce svgShape"
       id="path144" />
    <path
       fill="#111314"
       d="m 1339.23,1263.05 c 24.114,16.455 50.016,7.131 76.622,-14.176 0.862,-0.69 1.001,-1.949 0.311,-2.811 -0.691,-0.862 -1.95,-1.001 -2.812,-0.311 -24.999,20.02 -49.209,29.455 -71.866,13.994 -0.912,-0.623 -2.157,-0.388 -2.779,0.525 -0.623,0.912 -0.388,2.156 0.524,2.779 z"
       class="color141112 svgShape"
       id="path146" />
    <path
       fill="#2c5567"
       d="m 1646.55,1436.04 c -15.742,-3.175 -40.176,-3.125 -40.176,-3.125 0,0 -126.757,237.903 -178.941,337.329 l 151.588,-53.88 z m -259.73,28.95 c 0.169,54.043 -5.547,291.999 -2.416,284.241 l -77.332,-86.475 52.585,-185.393 z"
       class="color2c4067 svgShape"
       id="path148" />
    <path
       fill="#74cbf1"
       d="m 1435.96,1583.46 c -0.561,-0.05 36.756,62.897 35.501,62.936 l -24.839,61.536 16.071,185.52 -83.738,114.332 -47.079,-117.19 61.658,-183.834 -12.08,-75.882 z"
       class="color7487f1 svgShape"
       id="path150" />
    <path
       d="m 1393.49,1708.76 53.088,1.171 c 1.104,0.025 2.019,-0.851 2.044,-1.955 0.024,-1.104 -0.852,-2.019 -1.956,-2.044 l -53.088,-1.171 c -1.104,-0.024 -2.019,0.851 -2.043,1.955 -0.025,1.105 0.851,2.02 1.955,2.044 z m 65.18,139.86 c 3.442,-7.681 0,-16.698 -7.676,-20.14 -10e-4,0 0,-10e-4 0,-10e-4 -7.682,-3.442 -16.698,-0.01 -20.14,7.676 -29.151,65.059 -136.248,323.955 -136.248,323.955 l -13.979,70.48 41.797,-58.015 c 0,0 107.098,-258.896 136.248,-323.955 z"
       fill="#000000"
       class="color000000 svgShape"
       id="path152" />
    <path
       fill="#8bdafd"
       d="m 1571.98,1940.75 c 0,0 -88.022,-41.133 -143.862,-27.026 -27.994,7.072 -70.443,69.547 -70.443,69.547 -3.64,12.47 -0.482,21.34 13.983,24.225 0.058,16.396 6.533,25.093 17.241,28.71 -1.036,7.795 17.217,23.027 30.118,18.829 -2.212,9.817 17.273,24.495 30.971,16.916 66.927,-37.034 62.915,-0.818 92.985,4.785 z"
       class="colorfd8b98 svgShape"
       id="path154" />
    <path
       fill="#2fbefd"
       d="m 1373.08,2008.89 47.842,-48.653 c 0.775,-0.787 0.764,-2.054 -0.023,-2.828 -0.788,-0.774 -2.054,-0.764 -2.829,0.024 0,0 -47.842,48.653 -47.842,48.653 -0.775,0.787 -0.764,2.053 0.023,2.828 0.788,0.774 2.054,0.764 2.829,-0.024 z m 18.66,26.21 44.99,-45.752 c 0.774,-0.787 0.763,-2.054 -0.024,-2.828 -0.788,-0.775 -2.054,-0.764 -2.829,0.024 0,0 -44.989,45.751 -44.989,45.751 -0.775,0.788 -0.764,2.054 0.023,2.829 0.788,0.774 2.054,0.763 2.829,-0.024 z m 29.22,21.28 39.183,-39.847 c 0.775,-0.787 0.764,-2.053 -0.024,-2.828 -0.787,-0.774 -2.053,-0.764 -2.828,0.024 l -39.183,39.847 c -0.775,0.787 -0.764,2.054 0.023,2.828 0.788,0.775 2.054,0.764 2.829,-0.024 z"
       class="colorfdc82f svgShape"
       id="path156" />
    <path
       fill="#008fce"
       d="m 1547.77,1925.57 c 9.108,57.527 6.07,108.691 -21.154,147.187 0,0 165.074,102.611 251.707,135.225 145.815,54.894 304.587,-173.806 -25.311,-257.666 -51.268,-13.033 -205.242,-24.746 -205.242,-24.746 z"
       class="color0062ce svgShape"
       id="path158" />
    <path
       fill="#00151f"
       d="m 1718.41,1941.69 c -20.976,-3.241 -45.994,-6.263 -70.319,-8.874 -1.098,-0.118 -2.084,0.677 -2.202,1.775 -0.118,1.098 0.677,2.084 1.775,2.202 24.261,2.604 49.214,5.618 70.135,8.85 1.092,0.169 2.114,-0.579 2.282,-1.671 0.169,-1.092 -0.579,-2.113 -1.671,-2.282 z"
       class="color000f1f svgShape"
       id="path160" />
    <path
       d="m 1736.5,1459.36 c -18.42,4.865 -34.831,18.833 -46.986,43.876 -11.93,24.579 -19.794,59.945 -21.453,107.897 -2.249,65.033 -41.969,205.189 -31.08,291.626 1.242,9.853 2.902,19.66 4.947,29.4 -49.28,-5.178 -94.01,-8.581 -94.01,-8.581 -0.61,-0.047 -1.208,0.189 -1.622,0.638 -0.415,0.45 -0.601,1.065 -0.505,1.669 9.016,56.945 6.138,107.612 -20.812,145.719 -0.318,0.45 -0.436,1.011 -0.327,1.551 0.109,0.54 0.436,1.011 0.904,1.302 0,0 50.635,31.475 110.549,65.111 0.963,0.541 2.182,0.199 2.723,-0.764 0.54,-0.964 0.198,-2.183 -0.765,-2.723 -53.233,-29.886 -99.13,-58.062 -108.605,-63.913 25.994,-38.115 29.255,-88.181 20.673,-144.406 10.297,0.808 50.741,4.063 94.119,8.664 0.638,0.068 1.271,-0.175 1.7,-0.653 0.428,-0.478 0.602,-1.133 0.465,-1.761 -2.288,-10.512 -4.124,-21.106 -5.465,-31.753 -10.866,-86.251 28.864,-226.094 31.109,-290.988 1.634,-47.23 9.303,-82.079 21.053,-106.288 11.526,-23.746 26.943,-37.142 44.41,-41.756 1.068,-0.282 1.705,-1.376 1.423,-2.444 -0.282,-1.068 -1.377,-1.705 -2.445,-1.423 z"
       fill="#000000"
       class="color000000 svgShape"
       id="path162" />
  </g>
  <g
     fill="#000000"
     class="color000000 svgShape"
     id="g174"
     transform="matrix(0.98506426,0,0,0.89711677,3.9006477,54.192034)"
     style="filter:url(#filter6595)">
    <path
       fill="#008fce"
       d="M 717.491,779.219 490.929,857 v 199.338 l 233.112,-91.699 z"
       class="color0062ce svgShape"
       id="path166" />
    <path
       fill="#eaf0f3"
       d="m 766.397,807.166 -226.561,77.78 v 199.338 l 233.111,-91.699 z"
       class="colorec521d svgShape"
       id="path168" />
    <path
       fill="#eaf0f3"
       d="m 766.397,807.166 -226.561,77.78 142.685,81.051 z"
       class="colorec521d svgShape"
       id="path170" />
    <path
       fill="#ffffff"
       d="m 538.848,886.685 142.685,81.051 c 0.471,0.267 1.029,0.332 1.549,0.181 0.519,-0.152 0.955,-0.508 1.208,-0.986 L 768.166,808.1 c 0.516,-0.977 0.142,-2.187 -0.835,-2.703 -0.977,-0.516 -2.187,-0.142 -2.702,0.835 0,0 -82.913,157.007 -82.913,157.007 0,0 -140.892,-80.032 -140.892,-80.032 -0.961,-0.545 -2.182,-0.209 -2.727,0.751 -0.546,0.961 -0.21,2.182 0.751,2.727 z"
       class="colorffffff svgShape"
       id="path172" />
  </g>
  <g
     fill="#000000"
     class="color000000 svgShape"
     id="g182"
     transform="matrix(0.98506426,0,0,0.89711677,3.9006477,54.192034)"
     style="filter:url(#filter6601)">
    <path
       fill="#52add6"
       d="M 460.285,777.222 C 337.006,828.901 256.457,906.477 265.569,1038.393 l -4.407,390.743 c 38.478,-89.559 86.489,-167.853 200.56,-168.075 z"
       class="color5266d6 svgShape"
       id="path176" />
    <path
       fill="#74cbf1"
       d="M 504.645,1164.95 C 393.854,1151.538 283.268,1127.507 265.569,1038.388 l -4.407,390.743 c 43.328,72.127 120.924,112.379 246.562,107.939 z"
       class="color7487f1 svgShape"
       id="path178" />
    <path
       fill="#ffffff"
       d="m 262.566,1180.08 c 46.172,46.581 113.086,78.617 242.842,78.065 1.104,0 1.996,-0.904 1.991,-2.009 -0.004,-1.104 -0.904,-1.996 -2.008,-1.991 -128.188,0.546 -194.37,-30.863 -239.984,-76.881 -0.777,-0.784 -2.044,-0.79 -2.828,-0.012 -0.785,0.778 -0.79,2.044 -0.013,2.828 z"
       class="colorffffff svgShape"
       id="path180" />
  </g>
</svg>
